<svg width="100" height="20" viewBox="0 0 100 20" fill="none" xmlns="http://www.w3.org/2000/svg">
<path d="M4.1467 13.386H3.33362L3.74016 5.92885L4.1467 13.386ZM4.49904 19.7892H7.83266L6.01678 0.184454H1.68036L0 19.7892H2.95419L3.1439 16.2582H4.30932L4.49904 19.7892Z" fill="#E1FD2C"/>
<path d="M12.7154 20C15.1817 20 16.32 18.4717 16.32 16.7589V0.184454H12.8238V16.3636C12.8238 16.7062 12.6883 16.8643 12.4443 16.8643C12.2004 16.8643 12.092 16.7062 12.092 16.3636V0.184454H8.56866V16.7589C8.56866 18.498 9.54436 20 12.1733 20H12.7154Z" fill="#E1FD2C"/>
<path d="M18.8857 19.7892H22.2735V3.1884H23.8183V0.184454H17.3408V3.1884H18.8857V19.7892Z" fill="#E1FD2C"/>
<path d="M32.546 3.87352C32.546 1.52833 31.4619 0 28.8872 0H28.3451C25.7704 0 24.6863 1.44928 24.6863 3.87352V16.1792C24.6863 18.6034 25.9601 19.9736 28.3451 19.9736H28.9143C31.1638 19.9736 32.546 18.6298 32.546 16.1792V3.87352ZM29.0227 16.469C29.0227 16.8116 28.8872 16.996 28.6161 16.996C28.3722 16.996 28.2367 16.8116 28.2367 16.469V3.50461C28.2367 3.10935 28.3722 2.9249 28.6161 2.9249C28.8872 2.9249 29.0227 3.10935 29.0227 3.50461V16.469Z" fill="#E1FD2C"/>
<path d="M33.5914 10.3821V13.386H37.0063V10.3821H33.5914Z" fill="#E1FD2C"/>
<path d="M38.0512 19.7892H40.8699V8.8274L41.8998 19.7892H43.1194L44.1222 8.8274V19.7892H46.9951V0.184454H43.1736L42.5774 9.69697L41.9811 0.184454H38.0512V19.7892Z" fill="#E1FD2C"/>
<path d="M51.9172 13.386H51.1041L51.5107 5.92885L51.9172 13.386ZM52.2695 19.7892H55.6031L53.7873 0.184454H49.4509L47.7705 19.7892H50.7247L50.9144 16.2582H52.0798L52.2695 19.7892Z" fill="#E1FD2C"/>
<path d="M59.0242 19.9736C60.1896 19.9736 60.8943 19.2622 61.355 18.5507C61.4635 18.7879 61.6261 19.4993 61.7074 19.7892H64.0111V8.24769H60.0541V10.8037H60.7588V16.6535C60.7588 17.0487 60.5962 17.2596 60.2709 17.2596C59.9457 17.2596 59.7831 17.0487 59.7831 16.6535V3.26746C59.7831 2.9249 59.9186 2.7668 60.1625 2.7668C60.4878 2.7668 60.5691 2.95125 60.5691 3.26746V7.53623H63.8756V3.1357C63.8756 1.55468 63.0896 0 60.3522 0H59.8915C57.1812 0 56.2598 1.58103 56.2598 3.39921V16.7325C56.2598 18.4717 57.127 19.9736 58.9429 19.9736H59.0242Z" fill="#E1FD2C"/>
<path d="M68.9347 13.386H68.1216L68.5281 5.92885L68.9347 13.386ZM69.287 19.7892H72.6206L70.8048 0.184454H66.4683L64.788 19.7892H67.7422L67.9319 16.2582H69.0973L69.287 19.7892Z" fill="#E1FD2C"/>
<path d="M73.4367 0.184454V3.16205H76.0114L73.3283 17.0487V19.7892H79.8871V16.7852H77.0142L79.7516 2.9249V0.184454H73.4367Z" fill="#E1FD2C"/>
<path d="M84.3281 0.184454H80.8861V19.7892H84.3281V0.184454Z" fill="#E1FD2C"/>
<path d="M85.4247 0.184454V19.7892H88.2976L88.2705 8.03689L89.8695 19.7892H93.0406V0.184454H90.1948L90.2219 10.8037L88.8938 0.184454H85.4247Z" fill="#E1FD2C"/>
<path d="M94.1187 0.184454V19.7892H100V16.7325H97.4795V11.0672H99.5393V7.95784H97.4795V3.1884H99.9187V0.184454H94.1187Z" fill="#E1FD2C"/>
</svg>
